<svg width="32" height="33" viewBox="0 0 32 33" fill="none" xmlns="http://www.w3.org/2000/svg">
<g clip-path="url(#clip0_1896_42299)">
<path d="M16 0.5C11.7575 0.5 7.685 2.18675 4.6875 5.18625C1.68691 8.18694 0.000831175 12.2565 0 16.5C0 20.7417 1.6875 24.8142 4.6875 27.8137C7.685 30.8132 11.7575 32.5 16 32.5C20.2425 32.5 24.315 30.8132 27.3125 27.8137C30.3125 24.8142 32 20.7417 32 16.5C32 12.2583 30.3125 8.18575 27.3125 5.18625C24.315 2.18675 20.2425 0.5 16 0.5Z" fill="url(#paint0_linear_1896_42299)"/>
<path d="M7.24116 16.3311C11.9062 14.2991 15.0162 12.9593 16.5712 12.3121C21.0162 10.4638 21.9387 10.1428 22.5412 10.1319C22.6737 10.1298 22.9687 10.1626 23.1612 10.3182C23.3212 10.4494 23.3662 10.6269 23.3887 10.7516C23.4087 10.8761 23.4362 11.1598 23.4137 11.3813C23.1737 13.9113 22.1312 20.0508 21.6012 22.8846C21.3787 24.0836 20.9362 24.4856 20.5087 24.5248C19.5787 24.6103 18.8737 23.9108 17.9737 23.3211C16.5662 22.3978 15.7712 21.8233 14.4037 20.9226C12.8237 19.8816 13.8487 19.3093 14.7487 18.3743C14.9837 18.1296 19.0787 14.4058 19.1562 14.0681C19.1662 14.0258 19.1762 13.8683 19.0812 13.7853C18.9887 13.7021 18.8512 13.7306 18.7512 13.7531C18.6087 13.7851 16.3612 15.2721 12.0012 18.2138C11.3637 18.6523 10.7862 18.8661 10.2662 18.8548C9.69616 18.8426 8.59616 18.5318 7.77866 18.2663C6.77866 17.9406 5.98116 17.7683 6.05116 17.2151C6.08616 16.9271 6.48366 16.6323 7.24116 16.3311Z" fill="white"/>
</g>
<defs>
<linearGradient id="paint0_linear_1896_42299" x1="1600" y1="0.5" x2="1600" y2="3200.5" gradientUnits="userSpaceOnUse">
<stop stop-color="#2AABEE"/>
<stop offset="1" stop-color="#229ED9"/>
</linearGradient>
<clipPath id="clip0_1896_42299">
<rect width="32" height="32" fill="white" transform="translate(0 0.5)"/>
</clipPath>
</defs>
</svg>
