<svg style="display: none;">

        <symbol id="telegram" width="24" height="24" viewBox="0 0 24 24" fill="none" xmlns="http://www.w3.org/2000/svg">
                <g id="Frame">
                        <path id="Vector" d="M22.2081 2.45514C22.0919 2.3548 21.9505 2.28806 21.7992 2.26213C21.6479 2.23619 21.4923 2.25203 21.3494 2.30795L2.34998 9.74327C2.08071 9.84797 1.85275 10.0373 1.70041 10.2828C1.54806 10.5283 1.47959 10.8166 1.50529 11.1043C1.53098 11.3921 1.64947 11.6637 1.8429 11.8783C2.03633 12.0929 2.29423 12.2389 2.57779 12.2942L7.5006 13.2608V18.7498C7.49963 19.0488 7.58848 19.3412 7.75564 19.5891C7.9228 19.837 8.16056 20.029 8.4381 20.1401C8.71522 20.2533 9.01997 20.2805 9.31274 20.2181C9.6055 20.1557 9.87272 20.0067 10.0797 19.7905L12.4534 17.3286L16.2194 20.6248C16.4911 20.8658 16.8415 20.9992 17.2047 20.9998C17.3638 20.9997 17.522 20.9747 17.6734 20.9258C17.9209 20.8472 18.1434 20.7053 18.3189 20.514C18.4944 20.3227 18.6168 20.0887 18.6737 19.8355L22.479 3.28108C22.5131 3.13178 22.5058 2.97603 22.4581 2.83053C22.4104 2.68503 22.324 2.55527 22.2081 2.45514ZM16.4762 5.83014L8.07717 11.8451L3.42717 10.933L16.4762 5.83014ZM9.0006 18.7498V14.2986L11.3247 16.3367L9.0006 18.7498ZM17.2065 19.4998L9.45529 12.703L20.6115 4.70702L17.2065 19.4998Z" fill="#312D48"/>
                </g>
        </symbol>

        <symbol id="whatsapp" width="24" height="24" viewBox="0 0 24 24" fill="none" xmlns="http://www.w3.org/2000/svg">
                <path d="M18.973 4.91893C17.1352 3.027 14.5947 2 12 2C6.48651 2 2.05407 6.4865 2.10814 11.9459C2.10814 13.5417 2.52219 15.0914 3.22293 16.5103C3.33632 16.7399 3.36775 17.0025 3.30015 17.2495L2.45501 20.3375C2.25229 21.0782 2.92549 21.7615 3.66912 21.5698L6.85689 20.7482C7.10498 20.6843 7.3671 20.7202 7.59626 20.8348C8.96194 21.5175 10.454 21.8379 11.9459 21.8379C17.4054 21.8379 21.8379 17.3514 21.8379 11.8919C21.8379 9.24321 20.8109 6.75679 18.973 4.91893ZM12 20.1621C10.5406 20.1621 9.08108 19.7838 7.83786 19.027C7.62872 18.9225 7.3888 18.8971 7.16243 18.9557L6.03002 19.2485C5.29042 19.4398 4.61816 18.7647 4.81257 18.0259L5.09003 16.9715C5.15311 16.7318 5.11051 16.4765 4.973 16.2703C2.59464 12.4324 3.72972 7.35136 7.62165 4.973C11.5135 2.59459 16.5406 3.72971 18.9189 7.62164C21.2973 11.5135 20.1622 16.5406 16.2703 18.9189C15.0271 19.7297 13.5135 20.1621 12 20.1621ZM16.7568 14.1621L16.1687 13.8948C16.1644 13.8928 16.1606 13.8912 16.1563 13.8892C16.0865 13.8587 15.419 13.5654 14.9115 13.3193C14.8095 13.2698 14.7081 13.1892 14.5947 13.1892C14.5042 13.1892 14.4305 13.206 14.3643 13.2303C14.2632 13.2673 14.1792 13.3374 14.1076 13.4178C14.0108 13.5266 13.8293 13.7321 13.4903 14.1193C13.4342 14.1833 13.3922 14.2625 13.325 14.3148C13.2706 14.3572 13.2029 14.3784 13.1352 14.3784H13.0811C13.0698 14.3784 13.0562 14.376 13.0411 14.3718C12.9108 14.3352 12.8001 14.2444 12.6744 14.1941L12.5947 14.1621C12 13.8919 11.4595 13.5676 11.0271 13.1351C10.9189 13.027 10.7568 12.9189 10.6487 12.8108C10.2703 12.4324 9.89194 12 9.62165 11.5135L9.61192 11.4941C9.58255 11.4354 9.54773 11.3957 9.52112 11.3357C9.48267 11.249 9.45363 11.1394 9.46478 11.0452C9.46836 11.0149 9.47438 10.9871 9.48451 10.9633C9.49846 10.9306 9.52453 10.9051 9.54703 10.8776C9.61401 10.7956 9.76859 10.6098 9.89194 10.4865C9.97673 10.4017 10.0283 10.2836 10.0988 10.1844C10.1371 10.1306 10.1825 10.0813 10.2119 10.0222C10.2854 9.87471 10.3153 9.70244 10.2703 9.56757C10.2162 9.29729 9.56758 7.83786 9.40544 7.5135C9.33452 7.40718 9.26364 7.34733 9.17753 7.30347C9.08179 7.25471 8.97231 7.24321 8.86487 7.24321C8.75679 7.24321 8.59465 7.24321 8.43244 7.24321C8.34261 7.24321 8.25274 7.28057 8.16289 7.29318C8.12805 7.29807 8.09417 7.31126 8.0693 7.33614C8.05922 7.34622 8.04752 7.35449 8.03505 7.36141C7.97854 7.39278 7.92205 7.43717 7.86555 7.47916C7.77929 7.54328 7.68939 7.60523 7.62412 7.69062C7.57284 7.75771 7.52657 7.8248 7.45951 7.89186C7.08108 8.37836 6.86486 8.973 6.86486 9.56757C6.86486 10 6.97301 10.4324 7.13515 10.8108L7.18922 10.973C7.67572 12 8.32436 12.9189 9.18922 13.7297L9.40544 13.9459C9.52904 14.0696 9.65264 14.1618 9.75233 14.2704C9.81415 14.3378 9.8729 14.4088 9.9431 14.4674C11.053 15.3943 12.3152 16.0657 13.7297 16.4324C13.8432 16.4703 13.9831 16.4816 14.1124 16.5035C14.2184 16.5215 14.3251 16.5406 14.4326 16.5406C14.5607 16.5406 14.6987 16.5406 14.8109 16.5406C15.0811 16.5406 15.4054 16.4324 15.6217 16.3244C15.7838 16.2162 15.8919 16.2162 16 16.1081L16.1082 16C16.2162 15.8919 16.3244 15.8379 16.4324 15.7297C16.5406 15.6216 16.6487 15.5135 16.7027 15.4054C16.8013 15.2083 16.8549 14.9663 16.9046 14.7202C16.9142 14.6726 16.9189 14.6242 16.9189 14.5757C16.9189 14.5407 16.9189 14.5033 16.9189 14.4658C16.9189 14.3406 16.8688 14.2182 16.7568 14.1621Z" fill="#312D48"/>
        </symbol>

        <symbol id="phone" width="24" height="24" viewBox="0 0 24 24" fill="none" xmlns="http://www.w3.org/2000/svg">
                <path d="M13.6665 1C13.6665 1 16.2332 1.23334 19.4999 4.50007C22.7667 7.76679 23 10.3335 23 10.3335M13.908 5.12541C13.908 5.12541 15.063 5.45442 16.7955 7.18695C18.5281 8.91948 18.8583 10.0745 18.8583 10.0745M9.04407 4.86874L9.80125 6.2256C10.4838 7.45062 10.2096 9.05599 9.13391 10.1328C9.13391 10.1328 7.82721 11.4384 10.1956 13.8056C12.5605 16.1705 13.8672 14.8673 13.8672 14.8673C14.944 13.7904 16.5505 13.5162 17.7744 14.1987L19.1313 14.9571C20.9805 15.9884 21.1986 18.5808 19.5734 20.2072C18.5969 21.1825 17.3999 21.9432 16.078 21.9922C13.852 22.0774 10.0708 21.5139 6.27785 17.7221C2.48611 13.9292 1.9226 10.148 2.00777 7.92196C2.05794 6.60011 2.81745 5.40308 3.7928 4.42656C5.41917 2.80137 8.01155 3.01954 9.0429 4.86991L9.04407 4.86874Z" stroke="white" stroke-width="1.5" stroke-linecap="round"/>
        </symbol>

        <symbol id="youtube" width="32" height="32" viewBox="0 0 32 32" fill="none" xmlns="http://www.w3.org/2000/svg">
                <path fill-rule="evenodd" clip-rule="evenodd" d="M16 1.5C7.99187 1.5 1.5 7.99187 1.5 16C1.5 24.0081 7.99187 30.5 16 30.5C24.0081 30.5 30.5 24.0081 30.5 16C30.5 7.99187 24.0081 1.5 16 1.5ZM16 0C7.16344 0 0 7.16344 0 16C0 24.8366 7.16344 32 16 32C24.8366 32 32 24.8366 32 16C32 7.16344 24.8366 0 16 0ZM24.1749 12.0489C23.9786 11.2949 23.4003 10.7012 22.6659 10.4997C21.3351 10.1334 15.9982 10.1334 15.9982 10.1334C15.9982 10.1334 10.6613 10.1334 9.33035 10.4997C8.59599 10.7012 8.01767 11.2949 7.8214 12.0489C7.46484 13.4155 7.46484 16.2668 7.46484 16.2668C7.46484 16.2668 7.46484 19.118 7.8214 20.4846C8.01767 21.2386 8.59599 21.8324 9.33035 22.034C10.6613 22.4001 15.9982 22.4001 15.9982 22.4001C15.9982 22.4001 21.3351 22.4001 22.6659 22.034C23.4003 21.8324 23.9786 21.2386 24.1749 20.4846C24.5315 19.118 24.5315 16.2668 24.5315 16.2668C24.5315 16.2668 24.5315 13.4155 24.1749 12.0489ZM14.3984 13.8666V19.2L18.6651 16.5334L14.3984 13.8666Z" fill="white"/>
        </symbol>

        <symbol id="writing" width="28" height="28" viewBox="0 0 28 28" fill="none" xmlns="http://www.w3.org/2000/svg">
<g id="Frame">
<g id="Group">
<path id="Vector" fill-rule="evenodd" clip-rule="evenodd" d="M7.84494 12.3668L9.52378 13.7668C11.6658 15.5518 12.7379 16.4443 14.0038 16.4443C15.2719 16.4443 16.3429 15.5518 18.4861 13.7657L20.1661 12.3657C20.5779 12.0227 20.7844 11.85 20.8941 11.6155C21.0049 11.3798 21.0049 11.1115 21.0049 10.5737V8.16683C21.0049 7.7935 21.0049 7.4435 21.0026 7.11916C20.9886 5.053 20.8883 3.926 20.1509 3.1875C19.2958 2.3335 17.9214 2.3335 15.1716 2.3335H12.8383C10.0884 2.3335 8.71294 2.3335 7.85894 3.1875C7.12044 3.926 7.01894 5.053 7.00494 7.11916C7.00261 7.44466 7.00494 7.79233 7.00494 8.16683V10.5737C7.00494 11.1103 7.00494 11.3798 7.11461 11.6155C7.22544 11.85 7.43311 12.0227 7.84494 12.3668ZM10.7966 7.00016C10.7966 6.7681 10.8888 6.54554 11.0529 6.38144C11.217 6.21735 11.4395 6.12516 11.6716 6.12516H16.3383C16.5703 6.12516 16.7929 6.21735 16.957 6.38144C17.1211 6.54554 17.2133 6.7681 17.2133 7.00016C17.2133 7.23223 17.1211 7.45479 16.957 7.61888C16.7929 7.78298 16.5703 7.87516 16.3383 7.87516H11.6716C11.4395 7.87516 11.217 7.78298 11.0529 7.61888C10.8888 7.45479 10.7966 7.23223 10.7966 7.00016ZM11.9633 10.5002C11.9633 10.2681 12.0555 10.0455 12.2196 9.88144C12.3837 9.71735 12.6062 9.62516 12.8383 9.62516H15.1716C15.4037 9.62516 15.6262 9.71735 15.7903 9.88144C15.9544 10.0455 16.0466 10.2681 16.0466 10.5002C16.0466 10.7322 15.9544 10.9548 15.7903 11.1189C15.6262 11.283 15.4037 11.3752 15.1716 11.3752H12.8383C12.6062 11.3752 12.3837 11.283 12.2196 11.1189C12.0555 10.9548 11.9633 10.7322 11.9633 10.5002Z" fill="#7CA5C0"/>
<path id="Vector_2" d="M9.52144 13.7668L7.84144 12.3668C7.4296 12.0226 7.2231 11.8511 7.11227 11.6155C7.0026 11.3798 7.0026 11.1115 7.0026 10.5748V7.11914C5.48594 7.26847 4.4651 7.60564 3.70327 8.36747C2.33594 9.73364 2.33594 11.9351 2.33594 16.3358C2.33594 20.7341 2.33594 22.9345 3.70327 24.3006C5.06944 25.668 7.26977 25.668 11.6693 25.668H16.3359C20.7354 25.668 22.9358 25.668 24.3019 24.3006C25.6693 22.9356 25.6693 20.7353 25.6693 16.3358C25.6693 11.9363 25.6693 9.73481 24.3019 8.36747C23.5401 7.60564 22.5181 7.26847 21.0003 7.11914C21.0026 7.44581 21.0026 7.79464 21.0026 8.16914V10.576C21.0026 11.1126 21.0026 11.381 20.8918 11.6166C20.7821 11.8523 20.5768 12.025 20.1626 12.368L18.4826 13.768C16.3406 15.553 15.2696 16.4455 14.0026 16.4455C12.7356 16.4455 11.6634 15.553 9.52144 13.7668Z" fill="#BED6E7"/>
</g>
</g>

        </symbol>

        <symbol id="vc-ru-in-circle" width="32" height="32" viewBox="0 0 32 32" fill="none" xmlns="http://www.w3.org/2000/svg">
                <g clip-path="url(#clip0_1896_41824)">
                        <path d="M22.125 15.1681C23.8125 15.1681 25.3125 14.4286 26.25 13.1345L24.9375 12.2101C24.1875 13.1345 23.25 13.5042 22.125 13.5042C20.25 13.5042 18.75 12.0252 18.75 9.9916C18.75 8.14286 20.0625 6.47899 22.125 6.47899C23.0625 6.47899 23.625 6.66387 24.1875 7.03361V8.69748H25.875V6.29412L25.5 6.10924C24.75 5.36975 23.4375 5 22.125 5C19.3125 5 17.0625 7.21849 17.0625 9.9916C17.0625 12.9496 19.3125 15.1681 22.125 15.1681ZM25.6875 25.1513V22.7479V17.2017H22.3125V18.8655H24V22.7479C24 24.4118 22.6875 25.521 21.375 25.521C20.0625 25.521 19.3125 24.5966 19.3125 22.9328V17.2017H15.9375V18.8655H17.4375V23.3025C17.4375 25.521 18.75 27.1849 21 27.1849C22.3125 27.1849 23.25 26.4454 24 25.3361L24.1875 26.8151H26.8125V25.1513H25.6875ZM16.6875 5.18487H13.875L11.25 12.395L8.8125 5.18487H5.625V6.84874H7.3125L10.3125 14.9832H11.8125L15 6.84874H16.6875V5.18487ZM3 26.8151H4.6875V25.1513H3V26.8151ZM9.5625 19.0504L9.375 17.2017H6.375V18.6807H8.0625V25.1513H6.375V26.8151H13.875V25.3361H9.75V21.2689C9.9375 19.7899 11.0625 18.4958 12.5625 18.4958V19.9748H14.25V17.0168H12.9375C11.4375 17.0168 10.3125 17.9412 9.5625 19.0504Z" fill="white"/>
                </g>
                <defs>
                        <clipPath id="clip0_1896_41824">
                                <rect width="24" height="22" fill="white" transform="translate(3 5)"/>
                        </clipPath>
                </defs>
        </symbol>

        <symbol id="telegram-in-circle" width="32" height="32" viewBox="0 0 32 32" fill="none" xmlns="http://www.w3.org/2000/svg">
                <path fill-rule="evenodd" clip-rule="evenodd" d="M16 30.5C7.99187 30.5 1.5 24.0081 1.5 16C1.5 7.99187 7.99187 1.5 16 1.5C24.0081 1.5 30.5 7.99187 30.5 16C30.5 24.0081 24.0081 30.5 16 30.5ZM16 32C7.16344 32 0 24.8366 0 16C0 7.16344 7.16344 0 16 0C24.8366 0 32 7.16344 32 16C32 24.8366 24.8366 32 16 32ZM13.0676 23.3332L13.3398 19.2547L13.3396 19.2545L20.7589 12.5592C21.0845 12.2702 20.6878 12.1293 20.2555 12.3914L11.0991 18.1681L7.14406 16.9336C6.28994 16.6721 6.2838 16.0852 7.33582 15.6632L22.7478 9.72043C23.4517 9.40085 24.1311 9.88949 23.8624 10.9669L21.2377 23.3353C21.0545 24.2142 20.5234 24.4244 19.7876 24.0184L15.7894 21.0645L13.8676 22.9332C13.8615 22.9391 13.8555 22.9449 13.8495 22.9508C13.6346 23.16 13.4567 23.3332 13.0676 23.3332Z" fill="white"/>
        </symbol>

        <symbol id="telegram-in-square" width="32" height="32" viewBox="0 0 32 32" fill="none" xmlns="http://www.w3.org/2000/svg">
                <g clip-path="url(#clip0_1896_42332)">
                        <rect width="32" height="32" rx="8" fill="#82D9FE"/>
                        <path d="M26.2081 6.45514C26.0919 6.3548 25.9505 6.28806 25.7992 6.26213C25.6479 6.23619 25.4923 6.25203 25.3494 6.30795L6.34998 13.7433C6.08071 13.848 5.85275 14.0373 5.70041 14.2828C5.54806 14.5283 5.47959 14.8166 5.50529 15.1043C5.53098 15.3921 5.64947 15.6637 5.8429 15.8783C6.03633 16.0929 6.29423 16.2389 6.57779 16.2942L11.5006 17.2608V22.7498C11.4996 23.0488 11.5885 23.3412 11.7556 23.5891C11.9228 23.837 12.1606 24.029 12.4381 24.1401C12.7152 24.2533 13.02 24.2805 13.3127 24.2181C13.6055 24.1557 13.8727 24.0067 14.0797 23.7905L16.4534 21.3286L20.2194 24.6248C20.4911 24.8658 20.8415 24.9992 21.2047 24.9998C21.3638 24.9997 21.522 24.9747 21.6734 24.9258C21.9209 24.8472 22.1434 24.7053 22.3189 24.514C22.4944 24.3227 22.6168 24.0887 22.6737 23.8355L26.479 7.28108C26.5131 7.13178 26.5058 6.97603 26.4581 6.83053C26.4104 6.68503 26.324 6.55527 26.2081 6.45514ZM20.4762 9.83014L12.0772 15.8451L7.42717 14.933L20.4762 9.83014ZM13.0006 22.7498V18.2986L15.3247 20.3367L13.0006 22.7498ZM21.2065 23.4998L13.4553 16.703L24.6115 8.70702L21.2065 23.4998Z" fill="#312D48"/>
                </g>
                <defs>
                        <clipPath id="clip0_1896_42332">
                                <rect width="32" height="32" rx="8" fill="white"/>
                        </clipPath>
                </defs>
        </symbol>

        <symbol id="checkmark" width="16" height="16" viewBox="0 0 16 16" fill="none" xmlns="http://www.w3.org/2000/svg">
                <path d="M13.0198 4.27326C13.2125 4.45541 13.3249 4.70662 13.3324 4.97165C13.3399 5.23668 13.2419 5.49385 13.0598 5.6866L7.39313 11.6866C7.30129 11.7837 7.19092 11.8613 7.06856 11.915C6.94619 11.9687 6.8143 11.9974 6.68068 11.9992C6.54707 12.0011 6.41443 11.9762 6.29061 11.9259C6.1668 11.8756 6.05431 11.8011 5.9598 11.7066L2.9598 8.7066C2.78316 8.51703 2.68699 8.2663 2.69156 8.00723C2.69613 7.74817 2.80108 7.50099 2.9843 7.31777C3.16752 7.13455 3.4147 7.0296 3.67377 7.02503C3.93283 7.02046 4.18356 7.11662 4.37313 7.29326L6.64646 9.56526L11.6065 4.31326C11.7886 4.12059 12.0398 4.00815 12.3048 4.00064C12.5699 3.99314 12.827 4.0912 13.0198 4.27326Z" fill="#312D48"/>
        </symbol>

</svg>