<svg width="95" height="29" viewBox="0 0 95 29" fill="none" xmlns="http://www.w3.org/2000/svg">
<g clip-path="url(#clip0_1896_41576)">
<path d="M82.1105 28.367L11.5191 28.384C8.57699 28.3759 5.75744 27.172 3.67608 25.0351C1.59472 22.8982 0.42065 20.0018 0.410156 16.9784C0.41889 13.9547 1.59116 11.0573 3.67119 8.91861C5.75121 6.77988 8.5701 5.57346 11.5126 5.56268L82.1039 5.54565C85.046 5.55284 87.8657 6.75659 89.9467 8.8938C92.0278 11.031 93.2008 13.9278 93.2096 16.9512C93.2017 19.9746 92.0302 22.872 89.9507 25.0108C87.8712 27.1497 85.0527 28.3562 82.1105 28.367Z" fill="#3A3A3A"/>
<path d="M82.3767 24.0554L11.7854 24.0725C8.84355 24.0644 6.02434 22.8604 3.94351 20.7233C1.86268 18.5863 0.689308 15.69 0.679688 12.6669C0.688421 9.64321 1.86073 6.7458 3.94076 4.60707C6.02078 2.46834 8.83963 1.26193 11.7821 1.25115L82.3734 1.23413C85.3156 1.24132 88.1353 2.44505 90.2163 4.58225C92.2973 6.71945 93.4704 9.61632 93.4791 12.6397C93.4713 15.6637 92.2993 18.5616 90.219 20.7005C88.1388 22.8394 85.3195 24.0456 82.3767 24.0554Z" fill="url(#paint0_linear_1896_41576)"/>
<path d="M16.2456 16.059C16.0993 16.2084 15.9255 16.3263 15.7343 16.4059C15.5431 16.4854 15.3384 16.5249 15.1321 16.5222C14.9261 16.5244 14.7218 16.4843 14.5311 16.4042C14.3405 16.324 14.1673 16.2055 14.0219 16.0556C13.8766 15.9053 13.7622 15.7266 13.6853 15.53C13.6085 15.3335 13.5708 15.1231 13.5745 14.9113V8.09996C13.5745 7.7078 13.7108 7.32855 13.9589 7.03058C14.2546 6.76113 14.6413 6.62173 15.036 6.64235C15.3667 6.62217 15.6951 6.71041 15.9739 6.89436C16.0981 6.98582 16.2021 7.10316 16.2792 7.23871C16.3563 7.37427 16.4047 7.52499 16.4213 7.68107L16.4578 8.07271C16.7084 7.59615 17.0961 7.21077 17.568 6.96928C18.0405 6.71514 18.5658 6.58197 19.0991 6.58105C19.6286 6.55839 20.1543 6.68273 20.6208 6.94103C21.0874 7.19932 21.4776 7.58203 21.7504 8.04888C22.0424 7.56698 22.4652 7.18339 22.9668 6.94543C23.4857 6.69574 24.0508 6.56336 24.6238 6.55721C25.171 6.53834 25.7159 6.63703 26.2238 6.84697C26.7317 7.05691 27.1914 7.37347 27.5734 7.77642C28.3294 8.62396 28.7295 9.74373 28.687 10.8926V14.8159C28.6958 15.0252 28.6634 15.2342 28.5917 15.4302C28.5199 15.6263 28.4103 15.8054 28.2694 15.9568C28.1231 16.1062 27.9492 16.2241 27.758 16.3037C27.5668 16.3832 27.3621 16.4227 27.1558 16.42C26.95 16.4215 26.7458 16.381 26.5553 16.3009C26.3647 16.2208 26.1915 16.1027 26.0456 15.9534C25.9055 15.8009 25.7967 15.621 25.7255 15.4244C25.6544 15.2279 25.6223 15.0186 25.6313 14.8091V10.9914C25.6324 10.572 25.4851 10.1666 25.2171 9.85047C25.0771 9.70351 24.9101 9.58659 24.7257 9.50649C24.5414 9.4264 24.3434 9.38473 24.1433 9.3839C23.7442 9.37744 23.3582 9.53001 23.0662 9.8096C22.9203 9.95904 22.8049 10.137 22.727 10.3329C22.649 10.5288 22.61 10.7388 22.6122 10.9505V14.8398C22.6193 15.0491 22.5857 15.2578 22.5134 15.4537C22.4412 15.6496 22.3316 15.8287 22.1913 15.9806C22.0455 16.1297 21.8721 16.2471 21.6814 16.3261C21.4907 16.4051 21.2866 16.4439 21.081 16.4404C20.875 16.4432 20.6704 16.4034 20.4797 16.3232C20.2889 16.2431 20.1158 16.1242 19.9707 15.9738C19.83 15.8225 19.7207 15.6433 19.6494 15.4472C19.5782 15.251 19.5466 15.042 19.5565 14.8329V11.0152C19.5565 10.595 19.4095 10.1889 19.1422 9.8709C18.8577 9.57658 18.4721 9.409 18.0684 9.40433C17.665 9.41182 17.2797 9.57752 16.9913 9.86749C16.7012 10.1863 16.539 10.606 16.5373 11.0424V14.8261C16.6138 15.0381 16.6269 15.2687 16.575 15.4884C16.523 15.7081 16.4083 15.9068 16.2456 16.059Z" fill="white"/>
<path d="M35.2013 16.5291C34.4114 16.5214 33.6358 16.3119 32.9444 15.9195C32.223 15.5172 31.6147 14.9307 31.1779 14.2167C30.72 13.4421 30.4812 12.5517 30.4886 11.6454C30.4788 10.7278 30.7212 9.82589 31.1879 9.04347C31.6079 8.313 32.2234 7.72193 32.9609 7.34064C33.651 6.94226 34.4297 6.73456 35.2212 6.73783C35.8199 6.74317 36.4106 6.87897 36.9545 7.13629C37.4216 7.34979 37.8187 7.6975 38.0979 8.13755L38.1343 7.70846C38.19 7.41962 38.3528 7.16436 38.5884 6.99666C38.8691 6.81768 39.1963 6.73096 39.5263 6.74806C39.7092 6.7394 39.8916 6.77352 40.0598 6.84785C40.228 6.92219 40.3776 7.03479 40.4973 7.17717C40.7656 7.49452 40.9128 7.90109 40.9116 8.32147V15.0272C40.9233 15.443 40.7866 15.8488 40.5271 16.1681C40.3975 16.32 40.2365 16.4404 40.0559 16.5206C39.8754 16.6007 39.6797 16.6385 39.4832 16.6313C39.1357 16.6619 38.7897 16.5587 38.5121 16.3418C38.2786 16.1727 38.1173 15.9179 38.0614 15.63L38.0283 15.2009C37.7552 15.6462 37.3546 15.9935 36.8816 16.1953C36.3491 16.4217 35.7776 16.5353 35.2013 16.5291ZM34.2336 13.1234C34.4308 13.3341 34.6684 13.5004 34.9314 13.6118C35.1944 13.7231 35.477 13.7772 35.7614 13.7705C36.0445 13.7726 36.3253 13.7171 36.5875 13.6072C36.8497 13.4973 37.0882 13.3352 37.2892 13.1303C37.4941 12.9282 37.6559 12.6847 37.7643 12.415C37.8727 12.1453 37.9254 11.8554 37.9189 11.5636C37.9224 10.975 37.6983 10.4091 37.2958 9.99023C37.0996 9.77944 36.8625 9.61326 36.6 9.50239C36.3374 9.39153 36.0551 9.33846 35.7713 9.34658C35.4879 9.34381 35.2067 9.39865 34.9439 9.50794C34.6811 9.61724 34.442 9.77883 34.2402 9.98343C34.035 10.1857 33.8732 10.4299 33.7654 10.7003C33.6575 10.9707 33.6059 11.2613 33.6138 11.5534C33.5866 11.8491 33.6286 12.1471 33.7364 12.4226C33.8443 12.6982 34.0147 12.9431 34.2336 13.1371V13.1234Z" fill="white"/>
<path d="M56.5542 16.1474C56.4079 16.2968 56.234 16.4147 56.0428 16.4943C55.8516 16.5738 55.6469 16.6133 55.4406 16.6106C55.2348 16.6121 55.0306 16.5716 54.8401 16.4915C54.6495 16.4114 54.4763 16.2933 54.3304 16.144C54.1855 15.9935 54.0712 15.8147 53.9944 15.6182C53.9176 15.4217 53.8797 15.2114 53.883 14.9997V8.18838C53.8818 7.79601 54.0183 7.41635 54.2674 7.119C54.5623 6.84826 54.9496 6.70867 55.3445 6.73077C55.6747 6.71121 56.0027 6.79813 56.2825 6.97938C56.4061 7.07144 56.5097 7.18893 56.5867 7.32437C56.6637 7.45981 56.7125 7.61023 56.7299 7.76608L56.7663 8.15772C57.0169 7.68116 57.4047 7.29579 57.8765 7.05429C58.3495 6.80129 58.8745 6.66818 59.4077 6.66606C59.9369 6.64486 60.4621 6.76984 60.9284 7.028C61.3947 7.28615 61.7851 7.66804 62.059 8.1339C62.3509 7.652 62.7738 7.2684 63.2753 7.03045C63.7948 6.78234 64.3595 6.65004 64.9324 6.64222C65.4794 6.62419 66.0241 6.72328 66.5319 6.93317C67.0397 7.14306 67.4994 7.45917 67.882 7.86143C68.6316 8.70822 69.0278 9.82348 68.9856 10.9674V14.8941C68.9941 15.1034 68.9615 15.3122 68.8897 15.5082C68.818 15.7042 68.7086 15.8834 68.568 16.035C68.4215 16.184 68.2476 16.3014 68.0563 16.3803C67.8651 16.4593 67.6605 16.4982 67.4544 16.4948C67.2484 16.497 67.0441 16.4569 66.8534 16.3768C66.6627 16.2966 66.4896 16.1781 66.3442 16.0282C66.2041 15.8764 66.0952 15.6972 66.024 15.5011C65.9528 15.3051 65.9208 15.0963 65.9299 14.8873V11.0696C65.9315 10.6491 65.7842 10.2424 65.5157 9.92526C65.232 9.62968 64.8458 9.46188 64.4419 9.45868C64.0424 9.45351 63.6565 9.60727 63.3648 9.8878C63.2187 10.0364 63.1032 10.2137 63.0252 10.4091C62.9472 10.6045 62.9083 10.8141 62.9107 11.0253V14.9146C62.9184 15.124 62.8851 15.3329 62.8128 15.5288C62.7405 15.7248 62.6307 15.9039 62.4898 16.0554C62.3443 16.2049 62.171 16.3229 61.9803 16.4024C61.7897 16.482 61.5854 16.5215 61.3796 16.5186C61.1736 16.5213 60.9691 16.4813 60.7784 16.4012C60.5877 16.321 60.4146 16.2023 60.2694 16.0521C60.1284 15.9002 60.0189 15.7204 59.9477 15.5237C59.8765 15.327 59.845 15.1174 59.8551 14.9077V11.0934C59.8551 10.6733 59.7081 10.2671 59.4408 9.9491C59.3005 9.80259 59.1334 9.68598 58.9491 9.60592C58.7649 9.52585 58.5671 9.48392 58.3671 9.48253C57.9637 9.49002 57.5783 9.65572 57.29 9.94569C56.9998 10.2645 56.8376 10.6842 56.8359 11.1206V14.9043C56.9072 15.1178 56.9187 15.3476 56.8689 15.5675C56.819 15.7873 56.71 15.9883 56.5542 16.1474Z" fill="white"/>
<path d="M75.5105 16.6175C74.7214 16.6082 73.947 16.3975 73.2568 16.0045C72.5341 15.6042 71.9253 15.0173 71.4904 14.3017C71.0321 13.5285 70.7932 12.6391 70.801 11.7338C70.7917 10.8151 71.0341 9.91232 71.5004 9.12847C71.9216 8.39896 72.5367 7.8082 73.2734 7.42564C73.9637 7.0283 74.7425 6.82177 75.5337 6.82624C76.1323 6.82873 76.7234 6.96345 77.2669 7.22129C77.7328 7.43675 78.1294 7.78404 78.4104 8.22255L78.4468 7.79685C78.5033 7.50745 78.6659 7.25143 78.9008 7.08167C79.182 6.90388 79.5091 6.81835 79.8387 6.83647C80.0216 6.82781 80.2041 6.86193 80.3723 6.93627C80.5405 7.0106 80.6901 7.12318 80.8098 7.26557C81.0781 7.58155 81.2254 7.98709 81.2241 8.40647V15.1156C81.2337 15.5311 81.0972 15.9361 80.8396 16.2565C80.7096 16.4078 80.5485 16.5276 80.368 16.6071C80.1874 16.6866 79.9919 16.7239 79.7956 16.7163C79.4486 16.7482 79.1025 16.6462 78.8246 16.4302C78.5904 16.2603 78.429 16.0041 78.3739 15.715L78.3407 15.2859C78.0688 15.733 77.668 16.0818 77.194 16.2838C76.659 16.5054 76.0874 16.6187 75.5105 16.6175ZM74.5162 13.2118C74.7125 13.4226 74.9495 13.5888 75.2121 13.6997C75.4747 13.8106 75.757 13.8636 76.0407 13.8555C76.3241 13.8579 76.6053 13.8029 76.868 13.6936C77.1307 13.5844 77.3699 13.423 77.5719 13.2187C77.7771 13.0164 77.9388 12.7722 78.0467 12.5018C78.1546 12.2314 78.2062 11.9408 78.1982 11.6486C78.2009 11.3579 78.1474 11.0695 78.0411 10.8C77.9347 10.5305 77.7775 10.2854 77.5785 10.0786C77.3813 9.86799 77.1437 9.70171 76.8807 9.59032C76.6177 9.47894 76.3351 9.42489 76.0507 9.43158C75.479 9.42892 74.9297 9.65915 74.5229 10.0718C74.3175 10.2742 74.1555 10.5184 74.0471 10.7887C73.9386 11.059 73.8863 11.3496 73.8932 11.6418C73.8827 11.9357 73.9324 12.2285 74.0392 12.5013C74.146 12.7742 74.3074 13.0209 74.5129 13.2255L74.5162 13.2118Z" fill="white"/>
<path d="M51.6393 9.10817C51.7518 8.9912 51.8393 8.85146 51.8964 8.69784C51.9534 8.54423 51.9787 8.3801 51.9707 8.21589C51.974 8.01833 51.9391 7.82206 51.868 7.63848C51.7969 7.4549 51.691 7.28767 51.5565 7.1465C51.423 7.00008 51.2619 6.88319 51.083 6.80297C50.904 6.72274 50.711 6.68087 50.5158 6.67993C50.2804 6.69164 50.0502 6.75481 49.8404 6.86522C49.6307 6.97563 49.4463 7.13074 49.2995 7.3202L43.175 14.1315C43.0711 14.2524 42.9928 14.3941 42.9449 14.5477C42.897 14.7013 42.8805 14.8634 42.8966 15.0238C42.8933 15.2213 42.9282 15.4176 42.9993 15.6012C43.0704 15.7848 43.1763 15.952 43.3109 16.0932C43.4443 16.2396 43.6054 16.3565 43.7843 16.4367C43.9633 16.5169 44.1563 16.5588 44.3515 16.5597C44.5821 16.55 44.8077 16.4874 45.0118 16.3766C45.2159 16.2659 45.3934 16.1097 45.5313 15.9195L51.6393 9.10817Z" fill="white"/>
<path d="M44.2823 6.67655C44.5142 6.6469 44.7495 6.67351 44.9695 6.75425C45.1896 6.83499 45.3881 6.96761 45.5492 7.14146C45.7104 7.31532 45.8296 7.52558 45.8974 7.75535C45.9651 7.98512 45.9795 8.22801 45.9394 8.46452C45.8842 8.79053 45.7279 9.08945 45.4937 9.31658C45.2596 9.54371 44.9601 9.68686 44.6402 9.72462C44.4084 9.75427 44.173 9.72766 43.953 9.64692C43.7329 9.56618 43.5344 9.43357 43.3733 9.25971C43.2121 9.08586 43.0929 8.87559 43.0251 8.64582C42.9574 8.41605 42.943 8.17317 42.9832 7.93665C43.0393 7.6111 43.1959 7.31276 43.4299 7.08582C43.6639 6.85887 43.9628 6.71537 44.2823 6.67655Z" fill="white"/>
<path d="M50.3435 13.5388C50.5752 13.5099 50.8102 13.537 51.0299 13.618C51.2496 13.699 51.4478 13.8316 51.6088 14.0053C51.7698 14.179 51.889 14.3889 51.957 14.6184C52.025 14.8478 52.0399 15.0904 52.0005 15.3268C51.9444 15.6532 51.7874 15.9524 51.5528 16.18C51.3182 16.4076 51.0185 16.5514 50.6981 16.5903C50.4664 16.6192 50.2313 16.5921 50.0117 16.5111C49.792 16.4301 49.5937 16.2975 49.4328 16.1238C49.2718 15.9501 49.1525 15.7402 49.0845 15.5107C49.0165 15.2813 49.0016 15.0387 49.041 14.8023C49.0972 14.4758 49.2542 14.1767 49.4888 13.9491C49.7234 13.7215 50.0231 13.5777 50.3435 13.5388Z" fill="white"/>
<path d="M11.2217 24.7536C8.18423 24.5611 5.33238 23.1858 3.24736 20.9078C1.16233 18.6298 0.00098157 15.6205 0 12.4932C0.00613124 9.24348 1.26514 6.12867 3.5013 3.83077C5.73745 1.53287 8.76854 0.239136 11.9309 0.232835L82.5223 0.212402C85.685 0.217805 88.7166 1.51124 90.9529 3.80934C93.1893 6.10743 94.448 9.22277 94.4532 12.4728C94.4497 15.7249 93.1921 18.843 90.9559 21.1442C88.7196 23.4454 85.687 24.742 82.5223 24.7502L11.9309 24.7706C11.7023 24.7774 11.4537 24.7672 11.2217 24.7536ZM83.1388 1.9561C82.9333 1.9561 82.7245 1.93566 82.5157 1.93566L11.9243 1.9561C9.19954 1.9561 6.58631 3.06839 4.65959 5.04831C2.73287 7.02824 1.65048 9.7136 1.65048 12.5136C1.65048 15.3137 2.73287 17.999 4.65959 19.9789C6.58631 21.9589 9.19954 23.0712 11.9243 23.0712L82.5157 23.0541C85.2405 23.0541 87.8537 21.9418 89.7804 19.9619C91.7071 17.982 92.7896 15.2966 92.7896 12.4966C92.7904 9.80976 91.7943 7.22366 90.0043 5.26522C88.2142 3.30678 85.7649 2.12337 83.1553 1.9561H83.1388Z" fill="#3A3A3A"/>
<path d="M94.1457 15.3708L92.8167 19.9685L92.5781 15.8102L94.1457 15.3708Z" fill="#3A3A3A"/>
<path d="M0 12.5068L0.460667 18.0308L1.58748 14.9044L0 12.5068Z" fill="#3A3A3A"/>
</g>
<defs>
<linearGradient id="paint0_linear_1896_41576" x1="3.4006" y1="28.0877" x2="97.6559" y2="-2.87996" gradientUnits="userSpaceOnUse">
<stop stop-color="#B000FF"/>
<stop offset="0.46" stop-color="#4643FF"/>
<stop offset="1" stop-color="#00FF93"/>
</linearGradient>
<clipPath id="clip0_1896_41576">
<rect width="94.4797" height="28.175" fill="white" transform="translate(0 0.208984)"/>
</clipPath>
</defs>
</svg>
