<svg width="24" height="24" viewBox="0 0 24 24" fill="none" xmlns="http://www.w3.org/2000/svg">
<g id="Frame">
<g id="Group">
<path id="Vector" d="M3 12H21M15.6 12C15.6 13.1817 15.5064 14.3526 15.3255 15.4443C15.1455 16.536 14.88 17.5278 14.5452 18.3639C14.2113 19.2 13.8144 19.8624 13.3779 20.3151C12.9405 20.7669 12.4725 21 12 21C11.5275 21 11.0595 20.7669 10.623 20.3151C10.1856 19.8624 9.7887 19.1991 9.4548 18.3639C9.12 17.5278 8.8545 16.5369 8.6736 15.4443C8.48907 14.3055 8.39757 13.1536 8.4 12C8.4 10.8183 8.4927 9.6474 8.6736 8.5557C8.8545 7.464 9.12 6.4722 9.4548 5.6361C9.7887 4.8 10.1856 4.1376 10.6221 3.6849C11.0595 3.234 11.5275 3 12 3C12.4725 3 12.9405 3.2331 13.377 3.6849C13.8144 4.1376 14.2113 4.8009 14.5452 5.6361C14.88 6.4722 15.1455 7.4631 15.3255 8.5557C15.5064 9.6474 15.6 10.8183 15.6 12Z" stroke="#312D48" stroke-width="1.7" stroke-linecap="round"/>
<path id="Vector_2" d="M21 12C21 13.1819 20.7672 14.3522 20.3149 15.4442C19.8626 16.5361 19.1997 17.5282 18.364 18.364C17.5282 19.1997 16.5361 19.8626 15.4442 20.3149C14.3522 20.7672 13.1819 21 12 21C10.8181 21 9.64778 20.7672 8.55585 20.3149C7.46392 19.8626 6.47177 19.1997 5.63604 18.364C4.80031 17.5282 4.13738 16.5361 3.68508 15.4442C3.23279 14.3522 3 13.1819 3 12C3 9.61305 3.94821 7.32387 5.63604 5.63604C7.32387 3.94821 9.61305 3 12 3C14.3869 3 16.6761 3.94821 18.364 5.63604C20.0518 7.32387 21 9.61305 21 12Z" stroke="#312D48" stroke-width="1.7"/>
</g>
</g>
</svg>
