<svg width="22" height="22" viewBox="0 0 22 22" fill="none" xmlns="http://www.w3.org/2000/svg">
<path d="M14.1051 8.33321L14.258 8.4861C15.4429 9.67099 16.0358 10.2639 16.0358 10.9999C16.0358 11.7359 15.4429 12.3288 14.258 13.5137L14.1051 13.6665M12.1442 6.70654L10.994 10.9999L9.84379 15.2932M7.8829 8.33321L7.7309 8.4861C6.54513 9.67099 5.95312 10.2639 5.95312 10.9999C5.95312 11.7359 6.54513 12.3288 7.7309 13.5137L7.8829 13.6665" stroke="#AFAFC0" stroke-width="1.33333" stroke-linecap="round"/>
<path d="M2.10547 11C2.10547 6.80975 2.10547 4.71464 3.4068 3.41242C4.70991 2.11108 6.80414 2.11108 10.9944 2.11108C15.1846 2.11108 17.2797 2.11108 18.581 3.41242C19.8832 4.71553 19.8832 6.80975 19.8832 11C19.8832 15.1902 19.8832 17.2853 18.581 18.5866C17.2806 19.8889 15.1846 19.8889 10.9944 19.8889C6.80414 19.8889 4.70902 19.8889 3.4068 18.5866C2.10547 17.2862 2.10547 15.1902 2.10547 11Z" stroke="#AFAFC0" stroke-width="1.33333"/>
</svg>
