<?xml version="1.0" encoding="utf-8"?>
<!-- Generator: Adobe Illustrator 27.6.1, SVG Export Plug-In . SVG Version: 6.00 Build 0)  -->
<svg version="1.1" xmlns="http://www.w3.org/2000/svg" xmlns:xlink="http://www.w3.org/1999/xlink" x="0px" y="0px"
	 viewBox="0 0 100 100" style="enable-background:new 0 0 100 100;" xml:space="preserve">
<style type="text/css">
	.st0{display:none;}
	.st1{display:inline;}
	.st2{fill:#FFDEEF;}
	.st3{fill:#FCA4D2;}
	.st4{fill:#D8EFEA;}
	.st5{fill:#91CEC5;}
	.st6{fill:#D7E7FF;}
	.st7{fill:#97BFFF;}
	.st8{fill:#DFD9FF;}
	.st9{fill:#B597FF;}
	.st10{fill:#FFEAC5;}
	.st11{fill:#E5C188;}
</style>
<g id="Лояльность" class="st0">
	<g class="st1">
		<path class="st2" d="M58.7,18.88c-6.76,0.11-12.95,3.82-16.22,9.73c-3.27-5.92-9.46-9.63-16.22-9.73
			c-11.02,0.48-19.59,9.77-19.17,20.8c0,13.41,14.12,28.06,25.96,37.99c5.46,4.59,13.42,4.59,18.88,0
			c11.84-9.93,25.96-24.58,25.96-37.99C78.29,28.66,69.72,19.36,58.7,18.88z"/>
		<path class="st3" d="M38.38,48.72c0,2.02,1.64,3.66,3.66,3.66h1.32v3.09c0,2.02,1.64,3.66,3.66,3.66h6.65
			c2.02,0,3.66-1.64,3.66-3.66v-3.09H70.3c1.54,4.62,5.89,7.95,11.02,7.95c6.4,0,11.61-5.21,11.61-11.61
			c0-6.4-5.21-11.61-11.61-11.61c-5.13,0-9.48,3.34-11.02,7.95H42.04C40.02,45.06,38.38,46.7,38.38,48.72z M77.03,48.72
			c0-2.37,1.93-4.3,4.3-4.3s4.3,1.93,4.3,4.3c0,2.37-1.93,4.3-4.3,4.3S77.03,51.09,77.03,48.72z"/>
	</g>
</g>
<g id="CDP" class="st0">
	<g class="st1">
		<path class="st2" d="M66.88,36.06c-2.91-12.5-15.4-20.28-27.9-17.37C28.48,21.13,21.04,30.47,21,41.25
			c0,3.71,0.89,7.37,2.61,10.66c-7.76,4.16-10.68,13.83-6.52,21.59c2.78,5.19,8.19,8.42,14.08,8.41h30.5
			C74.5,81.86,84.86,71.41,84.8,58.57C84.75,47.83,77.34,38.52,66.88,36.06z"/>
		<path class="st3" d="M63.57,62.93c-0.99-3.97-3.54-7.21-6.9-9.14c0.83-1.34,1.31-2.92,1.31-4.6c0-4.84-3.94-8.78-8.78-8.78
			c-4.84,0-8.78,3.94-8.78,8.78c0,1.72,0.5,3.33,1.36,4.69c-3.29,1.94-5.78,5.14-6.76,9.06c-0.42,1.68,0.6,3.37,2.28,3.79
			c1.68,0.42,3.37-0.6,3.79-2.28c0.93-3.73,4.27-6.33,8.12-6.33h0.19c3.85,0,7.19,2.6,8.12,6.33c0.35,1.42,1.63,2.37,3.03,2.37
			c0.25,0,0.5-0.03,0.76-0.09C62.96,66.3,63.98,64.6,63.57,62.93z M49.19,46.65c1.4,0,2.53,1.14,2.53,2.53
			c0,1.4-1.14,2.53-2.53,2.53c-1.4,0-2.53-1.14-2.53-2.53C46.66,47.79,47.79,46.65,49.19,46.65z"/>
	</g>
</g>
<g id="Форма_захвата" class="st0">
	<g class="st1">
		<path class="st4" d="M88.87,51.87c0-10.86-11.47-19.68-25.7-19.84c-0.05,0-0.1,0-0.14,0h-3.8c-0.31,0-0.62,0.02-0.92,0.05
			c-7.65,0.22-14.51,3.33-21.04,7.8c-0.23-0.52-0.42-0.98-0.64-1.43c-1.15-2.43-2.68-4.59-4.84-6.22c-5.16-3.9-11.09-4.89-17.36-4.4
			c-1.74,0.14-3.01,1.67-3.16,3.46c-0.23,2.69-0.02,5.36,0.52,8c0.77,3.83,2.24,7.34,5.01,10.19c0.8,0.82,1.71,1.53,2.62,2.32
			c-0.34,0.25-0.7,0.45-0.98,0.73c-1.02,0.98-2.12,1.89-2.99,2.99c-2.22,2.81-3.23,6.14-3.81,9.61c-0.43,2.55-0.66,5.12-0.31,7.7
			c0.25,1.83,1.63,3.01,3.46,3.11c3.91,0.22,7.72-0.23,11.41-1.55c3.47-1.24,6.41-3.22,8.5-6.3c0.9-1.33,1.62-2.78,2.46-4.23
			c3.91,2.75,8.17,5.03,12.86,6.42c2.63,0.78,5.29,1.25,7.97,1.34c0.42,0.06,0.85,0.09,1.29,0.09h3.8c0.05,0,0.1,0,0.14,0
			C77.4,71.55,88.87,62.73,88.87,51.87z"/>
		<path class="st5" d="M63.32,60.68c-3.36,0-6.44-1.33-8.68-3.75c-0.41-0.45-0.79-0.92-1.13-1.42c-0.99,0.88-2.46,1.12-3.72,0.49
			c-1.65-0.83-2.32-2.84-1.49-4.49l3.37-6.71c0.7-1.39,2.25-2.11,3.76-1.75c1.51,0.36,2.57,1.7,2.57,3.25v1.89
			c0,3.36,2.23,5.8,5.31,5.8c3.2,0,5.8-2.6,5.8-5.8V27.35c0-1.85,1.5-3.34,3.34-3.34s3.34,1.5,3.34,3.34v20.84
			C75.81,55.08,70.21,60.68,63.32,60.68z"/>
	</g>
</g>
<g id="Виртуальные_x5F_карты" class="st0">
	<g class="st1">
		<path class="st4" d="M49.69,16.65H30.26c-6.91,0-12.52,5.6-12.52,12.52v41.66c0,6.91,5.6,12.52,12.52,12.52h19.43
			c6.91,0,12.52-5.6,12.52-12.52V29.17C62.21,22.25,56.6,16.65,49.69,16.65z"/>
		<path class="st5" d="M72.49,57.23H50.79c-5.4,0-9.77-4.38-9.77-9.77V37.36c0-5.4,4.38-9.77,9.77-9.77h21.69
			c5.4,0,9.77,4.38,9.77,9.77v10.09C82.26,52.85,77.88,57.23,72.49,57.23z M47.91,37.36v10.09c0,1.59,1.29,2.88,2.88,2.88h21.69
			c1.59,0,2.88-1.29,2.88-2.88V37.36c0-1.59-1.29-2.88-2.88-2.88H50.79C49.2,34.49,47.91,35.77,47.91,37.36z"/>
		<path class="st5" d="M43.23,74.62h-7.27c-0.5,0-1.18-0.31-1.5-0.69c-2.29-2.73-0.38-5.84,2.24-5.84h7.27c0.5,0,1.18,0.31,1.5,0.69
			C47.76,71.52,45.86,74.62,43.23,74.62z"/>
	</g>
</g>
<g id="Брошенные_корзины">
	<g>
		<g>
			<circle class="st6" cx="60.34" cy="77.18" r="5.8"/>
			<g>
				<path class="st6" d="M71.83,34.72c-1.53-1.84-3.8-2.9-6.18-2.89h-36.6c-0.28,0-0.56,0.02-0.83,0.05l-0.03-0.34
					c-0.01-0.06-0.01-0.12-0.02-0.18c-0.54-3.88-2.69-6.81-6.21-8.45c-2.53-1.18-5.22-1.43-7.03-1.43c-1.89,0-3.42,1.53-3.42,3.42
					c0,1.89,1.53,3.42,3.42,3.42c0.91,0,2.66,0.1,4.12,0.79c1.37,0.64,2.09,1.61,2.33,3.13l0.87,9.92l1.27,15.43
					c0.3,3.66,3.36,6.47,7.02,6.47h27.72c6.5,0,12.06-4.65,13.22-11.05l2.11-11.69C74,38.97,73.36,36.55,71.83,34.72z"/>
				<path class="st6" d="M31.34,71.38c-3.2,0-5.8,2.6-5.8,5.8c0,3.2,2.6,5.8,5.8,5.8s5.8-2.6,5.8-5.8
					C37.14,73.98,34.54,71.38,31.34,71.38z"/>
			</g>
		</g>
		<path class="st7" d="M75.74,42.55c-7.04,0-12.76-5.73-12.76-12.76s5.73-12.76,12.76-12.76c7.04,0,12.76,5.73,12.76,12.76
			S82.78,42.55,75.74,42.55z M75.74,23.67c-3.37,0-6.12,2.74-6.12,6.12s2.74,6.12,6.12,6.12s6.12-2.74,6.12-6.12
			S79.12,23.67,75.74,23.67z"/>
	</g>
</g>
<g id="Рассылки" class="st0">
	<g class="st1">
		<g>
			<path class="st6" d="M34.5,57.5c-3.33-1.65-6.67-3.29-9.99-4.95c-5.37-2.69-6.91-8.99-3.37-13.84c1.07-1.46,2.53-2.4,4.21-3.02
				c10.31-3.8,20.62-7.6,30.94-11.39c4.09-1.51,8.17-3.04,12.27-4.51c6.07-2.17,12.4,2.36,12.21,8.76
				c-0.03,1.02-0.26,2.08-0.61,3.05C74.89,45.97,69.6,60.36,64.28,74.72c-2.27,6.14-9.72,8.03-14.64,3.69
				c-0.9-0.79-1.61-1.88-2.17-2.95c-1.75-3.36-3.39-6.78-5.07-10.17C41.61,63.69,36.38,58.43,34.5,57.5z"/>
		</g>
		<g>
			<path class="st7" d="M30.46,73.2c-0.94,0-1.89-0.36-2.6-1.08c-1.44-1.44-1.44-3.77,0-5.21l26.82-26.82
				c1.44-1.44,3.77-1.44,5.21,0c1.44,1.44,1.44,3.77,0,5.21L33.07,72.12C32.35,72.84,31.41,73.2,30.46,73.2z"/>
		</g>
	</g>
</g>
<g id="Аналитика" class="st0">
	<g class="st1">
		<circle class="st8" cx="43.93" cy="55.61" r="28.71"/>
		<g>
			<path class="st9" d="M75.08,53.59H61.02c-7.93,0-14.38-6.45-14.38-14.38v-13.2c0-3.14,1.4-6.07,3.85-8.05
				c2.42-1.95,5.54-2.7,8.57-2.05c0.09,0.02,0.19,0.04,0.28,0.06c12.64,3.03,22.54,13.21,25.23,25.93c0.02,0.08,0.03,0.16,0.05,0.24
				c0.53,2.82-0.21,5.71-2.05,7.93C80.71,52.31,77.98,53.59,75.08,53.59z M56.89,22.04c-1.13,0-1.97,0.51-2.4,0.87
				c-0.94,0.76-1.48,1.89-1.48,3.1v13.2c0,4.42,3.6,8.02,8.02,8.02h14.05c1,0,1.95-0.44,2.59-1.22c0.37-0.44,0.95-1.38,0.7-2.68
				c-0.01-0.04-0.01-0.08-0.02-0.12c-2.18-10.33-10.23-18.59-20.49-21.06c-0.04-0.01-0.08-0.02-0.12-0.03
				C57.43,22.07,57.15,22.04,56.89,22.04z"/>
		</g>
	</g>
</g>
<g id="Подарочные_карты" class="st0">
	<g class="st1">
		<path class="st10" d="M73.6,81.18H26.4c-5.94,0-10.76-4.82-10.76-10.76V49.01c0-5.94,4.82-10.76,10.76-10.76H73.6
			c5.94,0,10.76,4.82,10.76,10.76v21.41C84.36,76.36,79.54,81.18,73.6,81.18z"/>
		<path class="st11" d="M66.2,51.19c-0.52,0-9.95-0.16-12.38-6.47c8.42,0,14.79-6.47,14.79-6.47c4.59-4.53,5.26-10.37,1.77-15.02
			c-1.76-2.35-4.34-3.88-7.25-4.29c-2.91-0.42-5.81,0.33-8.16,2.09c-2.17,1.63-3.78,3.7-4.97,5.81c-1.19-2.11-2.8-4.18-4.97-5.81
			c-2.35-1.76-5.25-2.51-8.16-2.09c-2.91,0.41-5.48,1.94-7.25,4.29c-3.49,4.65-2.82,10.49,1.77,15.02c0,0,6.38,6.47,14.79,6.47
			c-2.43,6.31-11.87,6.47-12.38,6.47c-1.79,0-3.23,1.45-3.23,3.24c0,1.79,1.45,3.24,3.24,3.24c4.14,0,10.56-1.29,14.88-5.28v0.02
			c0.46-0.43,0.91-0.89,1.32-1.38c0.41,0.49,0.85,0.95,1.32,1.38v-0.02c4.31,3.99,10.73,5.28,14.88,5.28c1.79,0,3.24-1.45,3.24-3.24
			C69.43,52.64,67.98,51.19,66.2,51.19z M36,33.71L36,33.71c-1.34-1.28-3.27-3.83-1.2-6.6c0.73-0.97,1.79-1.6,2.98-1.77
			c1.21-0.16,2.39,0.14,3.36,0.86c5.31,4.45,5.74,12.04,5.74,12.04C46.43,38.25,40.97,38.11,36,33.71z M58.85,26.21
			c0.97-0.72,2.15-1.02,3.36-0.86c1.2,0.17,2.26,0.8,2.98,1.77c2.07,2.77,0.14,5.31-1.2,6.59v0c-4.97,4.4-10.43,4.54-10.89,4.54
			C53.11,38.25,53.55,30.65,58.85,26.21z"/>
	</g>
</g>
<g id="Приведи_друга" class="st0">
	<g class="st1">
		<g>
			
				<ellipse transform="matrix(0.3827 -0.9239 0.9239 0.3827 -2.814 61.8344)" class="st10" cx="44.86" cy="33.02" rx="14.07" ry="14.07"/>
			<path class="st10" d="M71.26,70.11c-4.29-10.35-14.5-17.63-26.4-17.63c-11.9,0-22.11,7.28-26.4,17.63
				c-2.16,5.21,1.69,10.93,7.32,10.93h38.15C69.57,81.04,73.42,75.32,71.26,70.11z"/>
		</g>
		<path class="st11" d="M78.5,52.93h-6.48v-6.48c0-2.01-1.63-3.64-3.64-3.64c-2.01,0-3.64,1.63-3.64,3.64v6.48h-6.48
			c-2.01,0-3.64,1.63-3.64,3.64s1.63,3.64,3.64,3.64h6.48v6.48c0,2.01,1.63,3.64,3.64,3.64c2.01,0,3.64-1.63,3.64-3.64v-6.48h6.48
			c2.01,0,3.64-1.63,3.64-3.64S80.51,52.93,78.5,52.93z"/>
	</g>
</g>
<g id="Промокоды" class="st0">
	<g class="st1">
		<g>
			<path class="st10" d="M60.91,18.38h-0.34c-2.43,0.02-4.53,1.68-5.11,4.04c-0.77,2.81-3.67,4.46-6.47,3.69
				c-1.8-0.49-3.2-1.89-3.69-3.69c-0.59-2.35-2.69-4.01-5.11-4.04h-0.34c-7.27,0.01-13.17,5.9-13.17,13.17v42.16
				c0,4.37,3.54,7.9,7.9,7.9h5.61c2.43-0.02,4.53-1.68,5.11-4.04c0.77-2.81,3.67-4.46,6.47-3.69c1.8,0.49,3.2,1.89,3.69,3.69
				c0.59,2.35,2.69,4.01,5.11,4.04h5.61c4.37,0,7.9-3.54,7.9-7.9V31.56C74.07,24.28,68.18,18.39,60.91,18.38z"/>
		</g>
		<g>
			<g>
				<path class="st11" d="M33.4,65.3h-7.96c-1.96,0-3.56-1.59-3.56-3.56c0-1.96,1.59-3.56,3.56-3.56h7.96
					c1.96,0,3.56,1.59,3.56,3.56C36.95,63.71,35.36,65.3,33.4,65.3z"/>
			</g>
			<g>
				<path class="st11" d="M53.98,65.3h-7.96c-1.96,0-3.56-1.59-3.56-3.56c0-1.96,1.59-3.56,3.56-3.56h7.96
					c1.96,0,3.56,1.59,3.56,3.56C57.54,63.71,55.94,65.3,53.98,65.3z"/>
			</g>
			<g>
				<path class="st11" d="M74.56,65.3H66.6c-1.96,0-3.56-1.59-3.56-3.56c0-1.96,1.59-3.56,3.56-3.56h7.96
					c1.96,0,3.56,1.59,3.56,3.56C78.12,63.71,76.53,65.3,74.56,65.3z"/>
			</g>
		</g>
	</g>
</g>
<g id="Акции" class="st0">
	<g class="st1">
		<path class="st10" d="M84.23,52.85l-4.19,5.2c-0.7,0.87-1.06,1.97-1,3.08l0.33,6.67c0.11,2.14-1.29,4.06-3.35,4.62l-6.45,1.75
			c-1.08,0.29-2.01,0.97-2.62,1.9l-3.65,5.59c-1.17,1.79-3.43,2.53-5.43,1.76l-6.24-2.38c-1.04-0.4-2.2-0.4-3.24,0l-6.24,2.38
			c-2,0.76-4.26,0.03-5.43-1.76l-3.65-5.59c-0.61-0.93-1.54-1.61-2.62-1.9l-6.45-1.75c-2.06-0.56-3.46-2.48-3.35-4.62l0.33-6.67
			c0.06-1.11-0.3-2.21-1-3.08l-4.19-5.2c-1.34-1.67-1.34-4.04,0-5.71l4.19-5.2c0.7-0.87,1.06-1.97,1-3.08l-0.33-6.67
			c-0.11-2.14,1.29-4.06,3.35-4.62l6.45-1.75c1.08-0.29,2.01-0.97,2.62-1.9l3.65-5.59c1.17-1.79,3.43-2.53,5.43-1.76l6.24,2.38
			c1.04,0.4,2.2,0.4,3.24,0l6.24-2.38c2-0.76,4.26-0.03,5.43,1.76l3.65,5.59c0.61,0.93,1.54,1.61,2.62,1.9l6.45,1.75
			c2.06,0.56,3.46,2.48,3.35,4.62l-0.33,6.67c-0.06,1.11,0.3,2.21,1,3.08l4.19,5.2C85.57,48.81,85.57,51.19,84.23,52.85z"/>
		<g>
			<path class="st11" d="M58.43,51.64c-4.11,0-7.45,3.34-7.45,7.45c0,4.11,3.34,7.45,7.45,7.45s7.45-3.34,7.45-7.45
				C65.88,54.98,62.54,51.64,58.43,51.64z M58.43,61.04c-1.07,0-1.95-0.87-1.95-1.95c0-1.07,0.87-1.95,1.95-1.95
				s1.95,0.87,1.95,1.95C60.38,60.16,59.51,61.04,58.43,61.04z"/>
			<path class="st11" d="M49.02,40.91c0-4.11-3.34-7.45-7.45-7.45s-7.45,3.34-7.45,7.45c0,4.11,3.34,7.45,7.45,7.45
				S49.02,45.02,49.02,40.91z M39.62,40.91c0-1.07,0.87-1.95,1.95-1.95s1.95,0.87,1.95,1.95c0,1.07-0.87,1.95-1.95,1.95
				S39.62,41.98,39.62,40.91z"/>
			<path class="st11" d="M63.22,36.71L63.22,36.71c-0.08-0.73-0.44-1.39-1.01-1.85c-0.57-0.46-1.29-0.67-2.02-0.6
				c-0.73,0.08-1.39,0.44-1.85,1.01L37.28,61.37c-0.46,0.57-0.67,1.29-0.6,2.02c0.08,0.73,0.44,1.39,1.01,1.85
				c0.49,0.39,1.1,0.61,1.73,0.61c0.84,0,1.62-0.37,2.14-1.02l21.06-26.09C63.09,38.16,63.3,37.44,63.22,36.71z"/>
		</g>
	</g>
</g>
</svg>
