<svg width="22" height="22" viewBox="0 0 22 22" fill="none" xmlns="http://www.w3.org/2000/svg">
<path d="M7.4388 4.77775C7.4388 5.48499 7.15785 6.16327 6.65775 6.66337C6.15766 7.16347 5.47938 7.44442 4.77214 7.44442C4.06489 7.44442 3.38661 7.16347 2.88652 6.66337C2.38642 6.16327 2.10547 5.48499 2.10547 4.77775C2.10547 4.07051 2.38642 3.39223 2.88652 2.89213C3.38661 2.39204 4.06489 2.11108 4.77214 2.11108C5.47938 2.11108 6.15766 2.39204 6.65775 2.89213C7.15785 3.39223 7.4388 4.07051 7.4388 4.77775ZM19.8832 4.77775C19.8832 5.48499 19.6023 6.16327 19.1022 6.66337C18.6021 7.16347 17.9238 7.44442 17.2166 7.44442C16.5093 7.44442 15.8311 7.16347 15.331 6.66337C14.8309 6.16327 14.5499 5.48499 14.5499 4.77775C14.5499 4.07051 14.8309 3.39223 15.331 2.89213C15.8311 2.39204 16.5093 2.11108 17.2166 2.11108C17.9238 2.11108 18.6021 2.39204 19.1022 2.89213C19.6023 3.39223 19.8832 4.07051 19.8832 4.77775ZM7.4388 17.2222C7.4388 17.9294 7.15785 18.6077 6.65775 19.1078C6.15766 19.6079 5.47938 19.8889 4.77214 19.8889C4.06489 19.8889 3.38661 19.6079 2.88652 19.1078C2.38642 18.6077 2.10547 17.9294 2.10547 17.2222C2.10547 16.515 2.38642 15.8367 2.88652 15.3366C3.38661 14.8365 4.06489 14.5555 4.77214 14.5555C5.47938 14.5555 6.15766 14.8365 6.65775 15.3366C7.15785 15.8367 7.4388 16.515 7.4388 17.2222ZM19.8832 17.2222C19.8832 17.9294 19.6023 18.6077 19.1022 19.1078C18.6021 19.6079 17.9238 19.8889 17.2166 19.8889C16.5093 19.8889 15.8311 19.6079 15.331 19.1078C14.8309 18.6077 14.5499 17.9294 14.5499 17.2222C14.5499 16.515 14.8309 15.8367 15.331 15.3366C15.8311 14.8365 16.5093 14.5555 17.2166 14.5555C17.9238 14.5555 18.6021 14.8365 19.1022 15.3366C19.6023 15.8367 19.8832 16.515 19.8832 17.2222Z" stroke="#AFAFC0" stroke-width="1.33333"/>
<path d="M7.4401 17.2223H14.5512M7.4401 4.77783H14.5512M17.2179 14.5556V7.4445M4.77344 14.5556V7.4445" stroke="#AFAFC0" stroke-width="1.33333" stroke-linecap="round"/>
</svg>
