<svg width="22" height="22" viewBox="0 0 22 22" fill="none" xmlns="http://www.w3.org/2000/svg">
<path d="M5.91525 17.8887C3.81125 17.8887 2.10547 16.2034 2.10547 14.1243C2.10547 12.0443 3.81125 10.3589 5.91525 10.3589C6.16769 10.3589 6.4148 10.3838 6.65302 10.4301M6.65302 10.4301C6.44424 9.87235 6.33764 9.28157 6.33836 8.68606C6.33836 5.91362 8.61214 3.6665 11.4175 3.6665C14.0308 3.6665 16.1828 5.61673 16.4664 8.12428M6.65302 10.4301C7.14485 10.5256 7.61302 10.7171 8.0308 10.9936M13.1108 8.13495C13.6552 7.94527 14.2277 7.8488 14.8041 7.84961C15.3855 7.84961 15.9446 7.9465 16.4664 8.12428M16.4664 8.12428C18.4539 8.80428 19.8832 10.6718 19.8832 12.8692C19.8832 15.2754 18.1704 17.2869 15.8832 17.7758" stroke="#AFAFC0" stroke-width="1.33333" stroke-linecap="round"/>
<path d="M9.21484 17.2665L10.2308 18.3332L12.7704 15.6665" stroke="#AFAFC0" stroke-width="1.33333" stroke-linecap="round" stroke-linejoin="round"/>
</svg>
